<?xml version="1.0" encoding="utf-8"?>
<!-- Generator: Adobe Illustrator 16.0.0, SVG Export Plug-In . SVG Version: 6.00 Build 0)  -->
<!DOCTYPE svg PUBLIC "-//W3C//DTD SVG 1.1//EN" "http://www.w3.org/Graphics/SVG/1.1/DTD/svg11.dtd">
<svg version="1.1" id="Layer_1" xmlns="http://www.w3.org/2000/svg" xmlns:xlink="http://www.w3.org/1999/xlink" x="0px" y="0px"
	 width="260.009px" height="79.461px" viewBox="0 0 260.009 79.461" enable-background="new 0 0 260.009 79.461"
	 xml:space="preserve">
<path fill="#B73031" d="M36.57,37.643l1.409,3.354l3.664-1.71l-1.35-3.209L36.57,37.643z M26.202,42l-5.246,2.205
	c-3.468,1.458-5.914,4.644-6.809,8.238l8.15-3.425l-0.245-0.584l5.729-2.674L26.202,42z M29.524,40.604l1.525,3.63l3.662-1.71
	l-1.464-3.484L29.524,40.604z M37.109,28.5l1.377-0.579l-1.013-2.41l-1.626,0.684l-0.401-0.954l3.823-1.607l0.401,0.956
	l-1.627,0.684l1.012,2.409l1.378-0.577l1.161,2.762c2.618-1.424,16.819-8.37,21.058-15.032c-6.655-6.177-15.563-9.958-25.359-9.958
	C16.697,4.875,0,21.572,0,42.168c0,4.849,0.936,9.478,2.618,13.726c0.018-0.009,0.034-0.025,0.055-0.033
	c0.56-0.234,1.249,0.032,1.84,0.631l6.413-2.697c0.56-4.882,3.419-9.467,7.781-11.79c1.757-1.201,3.777-2.364,6.007-3.546
	l-1.696-4.039l1.377-0.58l-1.013-2.409l-1.628,0.684l-0.401-0.955l3.824-1.606l0.402,0.956l-1.627,0.683l1.014,2.409l1.376-0.578
	l1.59,3.783c1.169-0.59,2.377-1.187,3.622-1.805l-1.489-3.543l1.376-0.578l-1.013-2.409l-1.626,0.684L28.401,28.2l3.823-1.606
	l0.402,0.956l-1.627,0.684l1.011,2.409l1.378-0.579l1.4,3.333c1.182-0.594,2.389-1.203,3.609-1.838L37.109,28.5z M71.59,27.508
	c-4.774-1.991-9.73-0.431-18.275,3.099l-9.697,4.076l1.293,3.08l9.973-4.655l0.791,1.881l5.222-2.193
	c5.012-2.107,10.738-0.07,13.366,4.537C73.818,33.889,72.91,30.591,71.59,27.508z"/>
<path fill="#65604B" d="M29.981,65.678l38.022-15.977c3.908-1.645,5.751-6.159,4.11-10.068c-1.644-3.91-6.159-5.752-10.068-4.108
	l-5.222,2.193l0.709,1.688l-10.306,3.868l1.376,3.271l1.159-0.486l0.401,0.955l-5.641,2.372l-0.401-0.956l1.159-0.487l-1.43-3.404
	l-3.784,1.421l1.49,3.547l1.16-0.487l0.4,0.955l-5.64,2.372l-0.402-0.957l1.159-0.487l-1.545-3.675l-3.786,1.42l1.606,3.821
	l1.16-0.485l0.401,0.954l-5.641,2.373l-0.4-0.957l1.159-0.488l-1.661-3.949l-5.918,2.219l-0.164-0.387l-9.669,4.064
	c0.034,1.424,0.324,2.855,0.893,4.209C17.05,65.688,23.918,68.226,29.981,65.678z M69.148,52.428L31.128,68.406
	c-7.567,3.179-16.175-0.067-19.189-7.241c-0.563-1.339-0.904-2.738-1.043-4.147L5.728,59.19c0.066,0.816-0.153,1.499-0.604,1.841
	c6.479,11.023,18.457,18.429,32.168,18.429c18.56,0,33.949-13.562,36.81-31.316C72.979,49.996,71.293,51.526,69.148,52.428z"/>
<path fill="#8E9093" d="M84.719,6.265l0.042,0.02c0.49,0.234,0.856,0.468,1.099,0.705l0.11,0.116
	c0.345,0.366,0.329,0.945-0.038,1.289c-0.133,0.125-0.294,0.204-0.459,0.233c-0.011-0.16-0.074-0.319-0.193-0.443
	c-0.276-0.291-0.735-0.304-1.026-0.03c-0.29,0.276-0.304,0.735-0.03,1.027c0.276,0.29,0.736,0.305,1.028,0.028
	c0.042-0.039,0.079-0.085,0.11-0.137c0.264-0.021,0.525-0.13,0.734-0.331c0.493-0.464,0.516-1.243,0.052-1.738
	c-0.014-0.013-0.031-0.026-0.043-0.042l-0.197-0.169c-0.271-0.216-0.575-0.436-1.044-0.662l-0.055-0.031
	c0.004-0.005,0.006-0.014,0.01-0.021c0.329-0.667,0.233-1.498-0.309-2.07c-0.695-0.733-1.852-0.77-2.588-0.075
	c-0.192,0.181-0.334,0.396-0.431,0.628c-0.264-0.131-0.613-0.295-1.044-0.503c0.097-0.833-0.07-1.641-0.505-2.431
	c-0.25-0.442-0.525-0.799-0.832-1.072c-0.396-0.357-0.801-0.538-1.215-0.553c-0.371-0.017-0.671,0.101-0.894,0.354
	c-0.217,0.242-0.298,0.542-0.241,0.893c0.064,0.387,0.292,0.76,0.684,1.126c0.475,0.435,1.214,0.934,2.22,1.476
	c-0.035,0.81,0.007,1.41,0.12,1.801c0.174,0.595,0.482,1.088,0.923,1.481c0.459,0.409,0.965,0.637,1.517,0.677
	c0.596,0.04,1.154-0.142,1.667-0.552C84.266,6.948,84.542,6.618,84.719,6.265z M77.903,2.428c-0.229-0.203-0.408-0.399-0.532-0.586
	c-0.128-0.186-0.181-0.391-0.164-0.616c0.013-0.227,0.089-0.411,0.213-0.554c0.213-0.237,0.482-0.288,0.816-0.156
	c0.207,0.09,0.438,0.275,0.693,0.556c0.324,0.358,0.531,0.758,0.629,1.199c0.065,0.248,0.102,0.701,0.121,1.36
	C78.888,3.183,78.293,2.781,77.903,2.428z M82.244,4.868c0.533-0.506,1.376-0.48,1.878,0.055c0.271,0.283,0.386,0.658,0.359,1.019
	c-0.677-0.323-1.496-0.688-2.282-1.027C82.215,4.898,82.229,4.884,82.244,4.868z M81.429,6.899
	c-0.359-0.321-0.635-0.722-0.828-1.204c-0.192-0.484-0.252-0.961-0.173-1.432c0.397,0.202,0.719,0.362,0.964,0.489l0.026,0.013
	c-0.167,0.602-0.029,1.272,0.429,1.757c0.15,0.16,0.325,0.281,0.514,0.378c-0.061-0.049-0.121-0.096-0.172-0.151
	c-0.446-0.469-0.477-1.178-0.117-1.686l0.078,0.033c1.307,0.578,2.075,0.919,2.305,1.027c-0.026,0.127-0.072,0.251-0.141,0.366
	c0,0.004,0,0.004,0.002,0c-0.104,0.158-0.238,0.316-0.408,0.471c-0.386,0.357-0.815,0.522-1.282,0.488
	C82.205,7.418,81.805,7.235,81.429,6.899z M102.515,5.531l-0.579-2.299l-1.033-0.226l-2.231,8.976
	c-2.669-1.692-4.036-0.896-4.359,0.975c-0.456,2.069,2.878,3.522,4.708,1.507l1.859-7.643c1.741,1.38,2.479,3.269,0.826,6.475
	C105.5,11.725,104.743,8.237,102.515,5.531z M72.637,11.165l-2.379,6.82c-0.979-1.063-2.776-1.433-3.165,0.523
	c-0.072,1.515,1.824,2.37,3.345,1.078l1.849-5.464l1.623,1.401l1.142,1.027l-1.466,3.984c-0.04-0.11-0.138-0.174-0.236-0.241
	c-1.193-1.035-2.666-0.575-2.824,0.774c-0.133,1.561,1.447,2.008,2.543,1.611c0.33-0.118,0.618-0.295,0.75-0.541l2.727-7.517
	l-2.286-2.059L72.637,11.165z M75.303,15.79l-1.293-1.098l-1.428-1.27l0.177-0.612l1.337,1.159l1.376,1.263L75.303,15.79z
	 M86.594,14.898l-1.599,4.58c-0.654-0.713-1.863-0.961-2.124,0.353c-0.048,1.017,1.226,1.592,2.247,0.723l1.241-3.67l1.092,0.941
	l0.765,0.69l-0.983,2.674c-0.028-0.075-0.093-0.116-0.16-0.16c-0.801-0.696-1.792-0.386-1.896,0.519
	c-0.089,1.049,0.972,1.349,1.708,1.084c0.22-0.081,0.414-0.2,0.503-0.365l1.83-5.048l-1.535-1.382L86.594,14.898z M88.385,18.004
	l-0.869-0.738l-0.958-0.853l0.119-0.41l0.896,0.778l0.924,0.849L88.385,18.004z"/>
<text transform="matrix(1 0 0 1 109.6663 50.6069)" fill="#202121" font-family="'Marcellus-Regular'" font-size="38.1415">Orkestro</text>
</svg>
